<svg width="22" height="22" viewBox="0 0 22 22" fill="none" xmlns="http://www.w3.org/2000/svg">
<path d="M0.999998 0.5C0.723856 0.5 0.499998 0.723857 0.499998 1L0.499998 5.5C0.499998 5.77614 0.723856 6 0.999998 6C1.27614 6 1.5 5.77614 1.5 5.5V1.5H5.5C5.77614 1.5 6 1.27614 6 1C6 0.723857 5.77614 0.5 5.5 0.5L0.999998 0.5ZM8.41238 7.70527L1.35355 0.646446L0.646445 1.35355L7.70527 8.41238L8.41238 7.70527Z" fill="white"/>
<path d="M21 21.5C21.2761 21.5 21.5 21.2761 21.5 21V16.5C21.5 16.2238 21.2761 16 21 16C20.7238 16 20.5 16.2238 20.5 16.5V20.5H16.5C16.2238 20.5 16 20.7238 16 21C16 21.2761 16.2238 21.5 16.5 21.5H21ZM13.5876 14.2947L20.6464 21.3535L21.3535 20.6464L14.2947 13.5876L13.5876 14.2947Z" fill="white"/>
</svg>
